<svg width="20.000000" height="20.000000" viewBox="0 0 20 20" fill="none" xmlns="http://www.w3.org/2000/svg" xmlns:xlink="http://www.w3.org/1999/xlink">
	<desc>
			Created with Pixso.
	</desc>
	<defs/>
	<path id="Shape" d="M6.25 0L13.75 0C17.2012 0 20 2.79883 20 6.25L20 13.75C20 17.2012 17.2012 20 13.75 20L6.25 20C2.79875 20 0 17.2012 0 13.75L0 6.25C0 2.79883 2.79875 0 6.25 0ZM13.75 18.125C16.1625 18.125 18.125 16.1626 18.125 13.75L18.125 6.25C18.125 3.8374 16.1625 1.875 13.75 1.875L6.25 1.875C3.8375 1.875 1.875 3.8374 1.875 6.25L1.875 13.75C1.875 16.1626 3.8375 18.125 6.25 18.125L13.75 18.125Z" clip-rule="evenodd" fill="#1E2833" fill-opacity="1.000000" fill-rule="evenodd"/>
	<path id="Shape" d="M5 10C5 7.23877 7.23875 5 10 5C12.7613 5 15 7.23877 15 10C15 12.7612 12.7613 15 10 15C7.23875 15 5 12.7612 5 10ZM6.875 10C6.875 11.7224 8.2775 13.125 10 13.125C11.7225 13.125 13.125 11.7224 13.125 10C13.125 8.27637 11.7225 6.875 10 6.875C8.2775 6.875 6.875 8.27637 6.875 10Z" clip-rule="evenodd" fill="#1E2833" fill-opacity="1.000000" fill-rule="evenodd"/>
	<circle id="Oval" cx="15.375237" cy="4.625244" r="0.666250" fill="#1E2833" fill-opacity="1.000000"/>
</svg>
