<svg width="19.555557" height="15.888916" viewBox="0 0 19.5556 15.8889" fill="none" xmlns="http://www.w3.org/2000/svg" xmlns:xlink="http://www.w3.org/1999/xlink">
	<desc>
			Created with Pixso.
	</desc>
	<defs/>
	<path id="Path" d="M19.5556 1.8811C18.8283 2.19995 18.0534 2.41138 17.2456 2.51416C18.0767 2.01782 18.711 1.23804 19.0092 0.29834C18.2343 0.760254 17.3788 1.08667 16.467 1.26855C15.7312 0.485107 14.6826 0 13.5386 0C11.319 0 9.53211 1.80151 9.53211 4.01001C9.53211 4.32788 9.559 4.63354 9.625 4.92432C6.292 4.76172 3.34278 3.16431 1.36156 0.730957C1.01566 1.33105 0.812775 2.01782 0.812775 2.75732C0.812775 4.14575 1.52778 5.37646 2.59355 6.08911C1.94945 6.0769 1.31756 5.88989 0.782219 5.59521C0.782219 5.60767 0.782219 5.62354 0.782219 5.6394C0.782219 7.58765 2.17189 9.20581 3.99422 9.57861C3.66789 9.66772 3.31223 9.71045 2.94311 9.71045C2.68645 9.71045 2.42733 9.6958 2.18411 9.64209C2.70355 11.2297 4.17755 12.397 5.93022 12.4348C4.56622 13.502 2.83434 14.1448 0.959442 14.1448C0.630669 14.1448 0.315331 14.1301 0 14.0898C1.77589 15.2351 3.88055 15.8889 6.15022 15.8889C13.5276 15.8889 17.5609 9.77783 17.5609 4.48071C17.5609 4.30347 17.5548 4.13232 17.5462 3.9624C18.3419 3.39771 19.0104 2.69263 19.5556 1.8811Z" fill="#1E2833" fill-opacity="1.000000" fill-rule="nonzero"/>
</svg>
